PathFileType	4	(X/Y/Z)	..\data\SUBJ01\dynamic\walk.trc
DataRate	CameraRate	NumFrames	NumMarkers	Units	OrigDataRate	OrigDataStartFrame	OrigNumFrames
100.000000	100.000000	4	33	mm	100.000000	66	337
Frame#	Time	LFHD			RFHD			LBHD			RBHD			C7			T10			CLAV			STRN			LSHO			LELB			LWRA			LWRB			LFIN			RSHO			RELB			RWRA			RWRB			RFIN			LASI			RASI			SACR			LTHI			LKNE			LTIB			LANK			LHEE			LTOE			RTHI			RKNE			RTIB			RANK			RHEE			RTOE			
		X1	Y1	Z1	X2	Y2	Z2	X3	Y3	Z3	X4	Y4	Z4	X5	Y5	Z5	X6	Y6	Z6	X7	Y7	Z7	X8	Y8	Z8	X9	Y9	Z9	X10	Y10	Z10	X11	Y11	Z11	X12	Y12	Z12	X13	Y13	Z13	X14	Y14	Z14	X15	Y15	Z15	X16	Y16	Z16	X17	Y17	Z17	X18	Y18	Z18	X19	Y19	Z19	X20	Y20	Z20	X21	Y21	Z21	X22	Y22	Z22	X23	Y23	Z23	X24	Y24	Z24	X25	Y25	Z25	X26	Y26	Z26	X27	Y27	Z27	X28	Y28	Z28	X29	Y29	Z29	X30	Y30	Z30	X31	Y31	Z31	X32	Y32	Z32	X33	Y33	Z33	

67	1.61	798.7099609375002	1527.795776367188	-239.2232208251954	778.3603515625002	1496.331176757813	-119.8832550048828	646.6648559570314	1453.014770507813	-266.5088806152344	630.3204345703126	1427.528686523438	-137.5309295654297	597.2091064453126	1337.460327148438	-196.8926391601563	535.6524658203126	1115.361694335938	-215.4219055175782	746.3615722656251	1241.355224609375	-212.1440734863282	807.9893188476565	1085.873046875	-213.6005249023438	657.3640747070314	1308.816772460938	-371.5899963378907	675.3367919921876	1020.689086914063	-491.550262451172	839.4770507812502	851.6734008789065	-433.7305908203126	812.8948974609377	821.7861328125002	-485.2543029785157	900.0600585937502	781.5444335937502	-442.4766235351564	668.8695068359376	1263.181518554688	-31.03451156616212	599.6784057617189	973.726501464844	56.94694900512697	681.0083618164064	736.7359008789064	26.32865524291993	613.8291015625001	731.9192504882814	67.23807525634767	694.3206176757814	653.8370361328126	56.44052886962892	725.1535034179689	844.3167114257815	-351.9193420410157	740.3900146484376	854.5788574218752	-75.21360015869142	555.1079711914064	856.6708984375002	-200.8484497070313	630.7176513671876	582.5708618164064	-428.5584106445314	625.9091186523439	405.5497131347657	-352.6505432128907	441.793670654297	266.1249389648438	-381.2042541503907	348.5771179199219	176.6546630859375	-320.6010131835938	310.4431762695313	220.928207397461	-281.9098510742188	381.9263000488282	71.8114471435547	-277.4001159667969	765.1656494140626	577.2598876953126	-26.50778579711915	837.0806274414065	422.5683593750001	-111.7297668457032	839.2068481445315	182.291748046875	-86.45675659179689	819.3195800781252	61.38778686523439	-142.6035461425782	763.3128051757814	52.848445892334	-194.6471099853516	929.9151611328127	44.95940399169923	-165.6454315185547	
68	1.62	809.6072387695315	1529.41943359375	-238.8132476806641	789.4380493164065	1497.909057617188	-119.4682922363282	657.5460815429689	1454.599243164063	-265.9004516601563	641.3856201171876	1429.054931640625	-136.8777465820313	608.3107910156251	1338.890869140625	-196.158432006836	546.9066162109376	1116.776000976563	-214.526107788086	757.5712280273439	1242.968139648438	-211.7787475585938	819.301696777344	1087.4833984375	-213.2772674560547	668.3289794921876	1310.503295898438	-370.8697204589844	684.2463378906251	1021.444274902344	-489.6750793457032	844.1674804687502	847.4233398437502	-433.923065185547	816.5110473632815	818.8317871093752	-485.649871826172	902.335632324219	775.2500000000002	-443.3275146484376	680.9863281250001	1264.810180664063	-30.58354759216309	614.5774536132814	975.047302246094	58.27695846557619	699.5341186523439	739.3952026367189	27.84189605712891	632.4353027343751	733.5250854492189	68.72801208496095	714.2483520507814	656.8506469726564	58.06848526000978	736.7877807617189	845.3419189453127	-350.2220764160157	751.7415771484376	856.828308105469	-73.58506011962892	566.4622192382814	858.0086059570315	-199.4190979003907	648.4150390625001	582.5061645507814	-427.6669311523439	650.2587280273439	405.6316528320314	-353.3914794921876	463.6848144531251	272.2928771972657	-381.8114929199219	368.1670227050782	184.7924041748047	-321.8051757812501	332.1471862792969	230.438949584961	-282.3521118164063	397.1685180664064	77.26479339599611	-280.3905334472657	774.1306762695315	577.8356323242189	-25.44434928894044	842.9407958984377	421.849334716797	-111.592399597168	841.9373779296877	181.6582183837891	-86.6755828857422	819.7959594726565	61.34079360961915	-142.8580627441407	763.5850219726564	53.14336013793947	-194.6759185791016	930.2264404296877	44.62487411499024	-166.2081451416016	
69	1.63	820.382507324219	1531.112060546875	-238.6149902343751	800.4597778320315	1499.586791992188	-119.2407608032227	668.3101806640626	1456.209228515625	-265.4098510742188	652.3916015625001	1430.643798828125	-136.318832397461	619.3153076171876	1340.4033203125	-195.5242614746094	558.0152587890626	1118.289428710938	-213.584457397461	768.6497802734377	1244.616455078125	-211.5174255371094	830.4527587890627	1089.113037109375	-213.0264129638672	679.0581054687501	1312.119262695313	-370.2645263671876	692.9846191406251	1022.197570800781	-487.941864013672	848.540710449219	843.3228149414065	-434.1445617675782	819.9311523437502	816.0811157226565	-486.1133117675782	904.2437744140627	769.1780395507815	-444.1218261718751	693.0072631835939	1266.548706054688	-30.20164108276368	629.5220336914064	976.5440063476565	59.72968673706056	718.2349853515626	742.3626098632814	29.2082862854004	651.3305053710939	735.3573608398439	70.18508911132814	734.4953613281251	660.2024536132814	59.4688186645508	748.2473144531251	846.4879150390627	-348.6342163085938	762.8615722656251	858.9553833007815	-71.99974060058595	577.6458740234376	859.4467773437502	-198.0365142822266	666.1787109375001	582.6243896484376	-426.6952209472657	674.7760620117189	406.2543029785157	-353.8675842285157	486.4567260742189	278.1197814941407	-382.2804260253907	389.0384521484376	192.2190704345704	-322.8561706542969	354.6254577636719	238.8014526367188	-282.7508239746094	414.7946777343751	82.81478881835939	-283.4238891601563	782.5201416015627	578.2863769531251	-24.46141052246094	847.9855957031252	420.8931274414064	-111.2659759521485	844.2510375976565	181.0431365966797	-86.7932586669922	820.1370849609377	61.2761917114258	-143.0687713623047	763.7905273437501	53.39949035644533	-194.7215728759766	930.4541015625002	44.40307998657227	-166.6650085449219	
70	1.64	831.0596313476565	1532.852905273438	-238.6116180419922	811.4382324218752	1501.349365234375	-119.1844329833985	678.9766845703126	1457.839111328125	-265.0301513671876	663.3430175781251	1432.2958984375	-135.8478240966797	630.2364501953126	1341.99755859375	-194.9735565185547	568.9880981445314	1119.890869140625	-212.5952301025391	779.6069946289065	1246.29736328125	-211.3459167480469	841.4569091796877	1090.766967773438	-212.8258819580079	689.5546264648439	1313.655151367188	-369.7749023437501	701.5077514648439	1022.943603515625	-486.3596801757814	852.6232910156252	839.4314575195315	-434.4002075195314	823.1877441406252	813.5698852539065	-486.6450500488282	905.8516235351565	763.4177246093751	-444.8753662109376	704.9239501953126	1268.395629882813	-29.87996292114259	644.5230102539064	978.2161254882815	61.28966903686525	737.0686645507814	745.6245117187501	30.41935348510743	670.4822998046876	737.4245605468751	71.60994720458986	755.0039062500001	663.8780517578126	60.63526153564455	759.5573730468751	847.7740478515627	-347.1631774902344	773.7549438476565	860.967224121094	-70.47012329101564	588.6747436523439	860.9741210937502	-196.7337799072266	683.9786987304689	582.9454345703126	-425.6225585937501	699.3208618164064	407.4679565429689	-354.0311584472657	509.9698486328126	283.4928894042969	-382.6073913574219	411.0786743164064	198.7605438232422	-323.7635803222657	377.7036132812501	245.8650665283204	-283.1532592773438	434.7534179687501	88.22055816650392	-286.3558044433594	790.4578857421877	578.7268066406251	-23.52168464660645	852.302185058594	419.7714233398439	-110.7637557983399	846.1953125000002	180.4544677734375	-86.80635070800783	820.3687744140627	61.19714355468751	-143.23486328125	763.9464111328126	53.62922668457033	-194.7763214111329	930.6206054687502	44.25298309326173	-167.0221557617188	
